<svg xmlns="http://www.w3.org/2000/svg" xmlns:xlink="http://www.w3.org/1999/xlink" viewBox="-2742 -1631 170 98">
  <defs>
    <style>
      .cls-1 {
        fill: #95989a;
      }

      .cls-2 {
        fill: none;
      }

      .cls-2, .cls-3 {
        stroke: #95989a;
        stroke-width: 1px;
      }

      .cls-3 {
        fill: #fff;
      }

      .cls-4 {
        clip-path: url(#clip-path);
      }

      .cls-5 {
        clip-path: url(#clip-path-2);
      }

      .cls-6 {
        clip-path: url(#clip-path-3);
      }

      .cls-7 {
        fill: #e8d4c3;
      }

      .cls-8 {
        fill: #ac927f;
      }

      .cls-9 {
        fill: #c9dff3;
      }

      .cls-10 {
        fill: #333;
      }

      .cls-11 {
        fill: #e1f3fc;
      }

      .cls-12 {
        fill: #d0b69c;
      }

      .cls-13 {
        fill: #c0e0ba;
      }

      .cls-14 {
        fill: #e0eece;
      }

      .cls-15 {
        fill: #00b192;
      }

      .cls-16 {
        fill: #88b8cc;
      }

      .cls-17 {
        fill: #f89c33;
      }

      .cls-18 {
        fill: #ffc64b;
      }

      .cls-19 {
        fill: #808184;
      }

      .cls-20 {
        fill: #a6a8ab;
      }

      .cls-21 {
        fill: #bbbdbf;
      }

      .cls-22 {
        fill: #f0584d;
      }

      .cls-23 {
        fill: #d7413a;
      }

      .cls-24 {
        fill: #f1f1f2;
      }

      .cls-25 {
        fill: #66a260;
      }

      .cls-26 {
        fill: #d0d2d3;
      }

      .cls-27 {
        fill: #f59890;
      }

      .cls-28 {
        fill: #6e413e;
      }

      .cls-29 {
        fill: #e7cbb7;
      }

      .cls-30 {
        fill: #404041;
      }

      .cls-31 {
        fill: #ee434c;
      }

      .cls-32 {
        fill: #006838;
      }

      .cls-33 {
        fill: #754c28;
      }

      .cls-34 {
        fill: #006635;
      }

      .cls-35 {
        fill: #69ad7f;
      }

      .cls-36 {
        fill: #459361;
      }

      .cls-37 {
        fill: #f58d61;
      }

      .cls-38 {
        fill: #e27752;
      }

      .cls-39 {
        fill: #6d6e70;
      }

      .cls-40 {
        fill: #d04c42;
      }

      .cls-41 {
        fill: #da7068;
      }

      .cls-42 {
        fill: #f37d73;
      }

      .cls-43 {
        fill: #d13c44;
      }

      .cls-44 {
        fill: #929497;
      }

      .cls-45 {
        fill: #ffd41a;
      }

      .cls-46 {
        fill: #e6e7e8;
      }

      .cls-47 {
        fill: #d6ead5;
      }

      .cls-48 {
        fill: #746048;
      }

      .cls-49 {
        fill: #4c699a;
      }
    </style>
    <clipPath id="clip-path">
      <rect id="Rectangle_6" data-name="Rectangle 6" class="cls-1" width="170" height="98" rx="3" transform="translate(298 841)"/>
    </clipPath>
    <clipPath id="clip-path-2">
      <rect id="rectangle-3" class="cls-2" width="151.714" height="118" transform="translate(1009 303)"/>
    </clipPath>
    <clipPath id="clip-path-3">
      <rect id="rectangle-2" class="cls-3" width="177.843" height="94.4" transform="translate(0 0)"/>
    </clipPath>
  </defs>
  <g id="Mask_Group_4" data-name="Mask Group 4" class="cls-4" transform="translate(-3040 -2472)">
    <g id="group-mask-14" class="cls-5" transform="translate(-702 518)">
      <g id="group-mask-10" class="cls-6" transform="translate(995.514 326.6)">
        <g id="penyimpanan" transform="translate(18.804 0)">
          <g id="group" transform="translate(93.103)">
            <rect id="rectangle" class="cls-7" width="47.133" height="76.338"/>
            <path id="path" class="cls-8" d="M112.7,23.841V2.242h43.355v21.6H112.7Z" transform="translate(-110.813 -0.352)"/>
            <g id="group-2" data-name="group" transform="translate(0 23.489)">
              <rect id="rectangle-2-2" data-name="rectangle" class="cls-9" width="19.286" height="49.07" transform="translate(2.069 1.889)"/>
              <path id="path-2" data-name="path" class="cls-10" d="M112.055,108.187l4.463-17.616h-1.409l-4.463,17.616Z" transform="translate(-110.49 -37.721)"/>
              <path id="path-3" data-name="path" class="cls-10" d="M163.877,108.187l-4.463-17.616h1.409l4.463,17.616Z" transform="translate(-118.154 -37.721)"/>
              <path id="path-4" data-name="path" class="cls-10" d="M154.33,98.867H115.448l.336-1.33h38.209Z" transform="translate(-111.245 -38.816)"/>
              <rect id="rectangle-3-2" data-name="rectangle" class="cls-8" width="21.677" height="33.343" transform="translate(23.566 1.889)"/>
              <g id="group-3" data-name="group" transform="translate(0.49 3.35)">
                <path id="path-5" data-name="path" class="cls-11" d="M111.042,57.885l22.61-21.035V31.843l-22.61,21.035Z" transform="translate(-111.042 -31.843)"/>
                <path id="path-6" data-name="path" class="cls-11" d="M111.042,64.064l22.61-21.035V40.106l-22.61,21.035Z" transform="translate(-111.042 -33.141)"/>
              </g>
              <path id="path-7" data-name="path" class="cls-7" d="M110.461,27.868v52.85h23.465V27.868Zm21.355,50.959H112.53V53.245h19.286Zm0-27.471H112.53v-21.6h19.286Z" transform="translate(-110.461 -27.868)"/>
              <g id="group-4" data-name="group" transform="translate(23.464 35.233)">
                <path id="path-8" data-name="path" class="cls-7" d="M148.092,76.636H138.3v5.872h16.279Z" transform="translate(-138.3 -70.764)"/>
                <path id="path-9" data-name="path" class="cls-12" d="M156.4,82.508h7.39V76.636H149.918Z" transform="translate(-140.125 -70.764)"/>
                <path id="path-10" data-name="path" class="cls-12" d="M164.1,89.476h.9V83.6h-7.39Z" transform="translate(-141.335 -71.859)"/>
                <path id="path-11" data-name="path" class="cls-7" d="M154.578,83.6H138.3v5.873h22.765Z" transform="translate(-138.3 -71.859)"/>
                <path id="path-12" data-name="path" class="cls-7" d="M141.606,69.669H138.3v5.872h9.793Z" transform="translate(-138.3 -69.669)"/>
                <path id="path-13" data-name="path" class="cls-12" d="M162.585,75.541V69.669H142.223l6.486,5.872Z" transform="translate(-138.916 -69.669)"/>
              </g>
            </g>
            <g id="group-5" data-name="group" transform="translate(27.834 31.237)">
              <path id="path-14" data-name="path" class="cls-13" d="M153.382,43.4l2.046-6.341H145.278l2.045,6.341a5.836,5.836,0,0,0-3.838,5.24v15.9h13.736v-15.9A5.835,5.835,0,0,0,153.382,43.4Z" transform="translate(-143.484 -37.061)"/>
              <g id="group-6" data-name="group" transform="translate(0 0)">
                <path id="path-15" data-name="path" class="cls-14" d="M150.561,37.062l-4.6.913.07.218,5.7-1.131Z" transform="translate(-143.874 -37.062)"/>
                <path id="path-16" data-name="path" class="cls-14" d="M155.6,38.28l-8.916,1.77.071.218,8.766-1.74Z" transform="translate(-143.987 -37.253)"/>
                <path id="path-17" data-name="path" class="cls-14" d="M154.183,43.36l-7.2,1.429c-.182.1-.356.218-.526.336l7.642-1.517Z" transform="translate(-143.952 -38.051)"/>
                <path id="path-18" data-name="path" class="cls-14" d="M154.842,45.492l-10.689,2.122c-.043.084-.086.17-.125.257l11.061-2.2C155.009,45.612,154.926,45.552,154.842,45.492Z" transform="translate(-143.57 -38.386)"/>
                <path id="path-19" data-name="path" class="cls-14" d="M156.383,47.487l-12.889,2.559c0,.078-.01.155-.01.234l13.023-2.585C156.466,47.625,156.427,47.554,156.383,47.487Z" transform="translate(-143.484 -38.7)"/>
                <path id="path-20" data-name="path" class="cls-14" d="M157.129,49.688,143.484,52.4v.232l13.682-2.716C157.155,49.838,157.144,49.763,157.129,49.688Z" transform="translate(-143.484 -39.046)"/>
                <path id="path-21" data-name="path" class="cls-14" d="M157.221,52.045l-13.736,2.727V55l13.736-2.727Z" transform="translate(-143.484 -39.416)"/>
                <path id="path-22" data-name="path" class="cls-14" d="M157.221,54.422l-13.736,2.727v.232l13.736-2.727Z" transform="translate(-143.484 -39.79)"/>
                <path id="path-23" data-name="path" class="cls-14" d="M157.221,56.8l-13.736,2.726v.232l13.736-2.727Z" transform="translate(-143.484 -40.163)"/>
                <path id="path-24" data-name="path" class="cls-14" d="M157.221,59.177,143.484,61.9v.232l13.736-2.727Z" transform="translate(-143.484 -40.537)"/>
                <path id="path-25" data-name="path" class="cls-14" d="M157.221,61.554l-13.736,2.727v.232l13.736-2.727Z" transform="translate(-143.484 -40.911)"/>
                <path id="path-26" data-name="path" class="cls-14" d="M157.221,63.932l-13.736,2.727v.232l13.736-2.727Z" transform="translate(-143.484 -41.284)"/>
                <path id="path-27" data-name="path" class="cls-14" d="M157.221,66.31l-13.736,2.726v.1h.642l13.094-2.6Z" transform="translate(-143.484 -41.658)"/>
                <path id="path-28" data-name="path" class="cls-14" d="M159,68.688l-4.169.827H156l3-.6Z" transform="translate(-145.268 -42.032)"/>
                <path id="path-29" data-name="path" class="cls-14" d="M155.022,40.82,147.4,42.332l.07.218,7.468-1.482Z" transform="translate(-144.1 -37.652)"/>
              </g>
            </g>
            <path id="path-30" data-name="path" class="cls-7" d="M138.841,90.571" transform="translate(-114.921 -14.233)"/>
            <path id="path-31" data-name="path" class="cls-8" d="M138.756,29.233V80.717H138.3V27.868Z" transform="translate(-114.836 -4.379)"/>
            <path id="path-32" data-name="path" class="cls-8" d="M161.141,77.091h-22.3v-.455h23.213Z" transform="translate(-114.921 -12.043)"/>
            <path id="path-33" data-name="path" class="cls-8" d="M161.141,84.058h-22.3V83.6h23.213Z" transform="translate(-114.921 -13.138)"/>
            <g id="group-7" data-name="group" transform="translate(5.984 6.335)">
              <path id="path-34" data-name="path" class="cls-15" d="M119.675,9.4a6.214,6.214,0,0,0-1.929,3.27A3.741,3.741,0,0,0,119.675,9.4Z" transform="translate(-117.59 -7.812)"/>
              <path id="path-35" data-name="path" class="cls-15" d="M124.1,9.4c.427.426-.852,2.556,0,2.13,2.323-.332,4.388.886,6.4.435a6.222,6.222,0,0,0-8.248-4.013C122.29,8.771,122.85,9.086,124.1,9.4Z" transform="translate(-118.297 -7.516)"/>
              <path id="path-36" data-name="path" class="cls-15" d="M127.242,13.734c0,.852-1.278.426-1.278.852a1.627,1.627,0,0,0,2.13,1.278,1.873,1.873,0,0,0,.426-2.13A.8.8,0,0,0,127.242,13.734Z" transform="translate(-118.881 -8.443)"/>
              <path id="path-37" data-name="path" class="cls-15" d="M119.531,14.769c-.289-.288-1.161-.186-1.961-.09,0,.06-.009.118-.009.179a6.2,6.2,0,0,0,.451,2.319C119.117,16.614,120.173,16.056,119.531,14.769Z" transform="translate(-117.561 -8.626)"/>
              <path id="path-38" data-name="path" class="cls-15" d="M124.031,21.937A7.512,7.512,0,0,0,119.6,20,6.2,6.2,0,0,0,124.031,21.937Z" transform="translate(-117.881 -9.478)"/>
              <path id="path-39" data-name="path" class="cls-15" d="M127.434,18.835c-.842.842.808,1.684.025,2.526a6.251,6.251,0,0,0,2.433-1.65C128.691,20.019,128.263,18.421,127.434,18.835Z" transform="translate(-119.073 -9.284)"/>
              <path id="path-40" data-name="path" class="cls-16" d="M130.012,13.522a6.243,6.243,0,0,0-.251-1.476c-2.008.451-4.072-.767-6.4-.435-.852.426.427-1.7,0-2.13-1.251-.313-1.811-.628-1.853-1.448a6.25,6.25,0,0,0-1.865,1.154,3.742,3.742,0,0,1-1.929,3.27,6.26,6.26,0,0,0-.147,1.195c.8-.1,1.671-.2,1.961.09.643,1.286-.414,1.845-1.519,2.408a6.226,6.226,0,0,0,1.27,1.972,7.512,7.512,0,0,1,4.429,1.936c.027,0,.053,0,.081,0a6.2,6.2,0,0,0,2.156-.385c.783-.842-.867-1.684-.025-2.526.829-.415,1.257,1.184,2.459.876.125-.138.25-.277.364-.426A3.087,3.087,0,0,1,130.012,13.522Zm-7.072,1.922c-.426.426-1.277-.426-1.7-.426,0-.852-.426-1.7.852-2.13C123.366,13.314,122.94,14.592,122.94,15.444Zm3.835-.426a1.627,1.627,0,0,1-2.13-1.278c0-.426,1.278,0,1.278-.852a.8.8,0,0,1,1.278,0A1.873,1.873,0,0,1,126.775,15.018Z" transform="translate(-117.562 -7.597)"/>
              <path id="path-41" data-name="path" class="cls-15" d="M122.759,13.794c-1.278.426-.852,1.278-.852,2.13.426,0,1.278.852,1.7.426C123.61,15.5,124.036,14.22,122.759,13.794Z" transform="translate(-118.233 -8.503)"/>
              <path id="path-42" data-name="path" class="cls-15" d="M132.037,14.545a3.087,3.087,0,0,0-1.267,4.076,6.2,6.2,0,0,0,1.278-3.77C132.048,14.749,132.041,14.647,132.037,14.545Z" transform="translate(-119.587 -8.621)"/>
              <g id="group-8" data-name="group" transform="translate(5.804 13.368)">
                <rect id="rectangle-4" data-name="rectangle" class="cls-17" width="0.853" height="2.575"/>
              </g>
              <rect id="rectangle-5" data-name="rectangle" class="cls-18" width="7.35" height="1.243" transform="translate(2.555 15.942)"/>
              <g id="group-9" data-name="group" transform="translate(1.912 0.032)">
                <path id="path-43" data-name="path" class="cls-18" d="M128.465,7.554l-.486.7a6.7,6.7,0,1,1-7.663,11l-.487.7a7.555,7.555,0,1,0,8.636-12.4Z" transform="translate(-119.829 -7.554)"/>
              </g>
            </g>
            <g id="group-10" data-name="group" transform="translate(26.265 3.244)">
              <path id="path-44" data-name="path" class="cls-19" d="M144.382,3.849h-.317v.137h.053V7.835h.211V3.986h.053Z" transform="translate(-142.006 -3.849)"/>
              <rect id="rectangle-6" data-name="rectangle" class="cls-20" width="0.477" height="3.917" transform="translate(1.979 3.456)"/>
              <rect id="rectangle-7" data-name="rectangle" class="cls-21" width="0.688" height="3.917" transform="translate(1.874 7.012)"/>
              <g id="group-11" data-name="group" transform="translate(0 10.145)">
                <path id="path-45" data-name="path" class="cls-22" d="M142.478,15.885a.855.855,0,0,0-.856.856v8.388a.855.855,0,0,0,.856.856h6.034l5.341-10.1Z" transform="translate(-141.622 -15.885)"/>
                <path id="path-46" data-name="path" class="cls-23" d="M158.513,15.885h-3.375l-5.341,10.1h8.716a.856.856,0,0,0,.856-.856V16.74A.856.856,0,0,0,158.513,15.885Z" transform="translate(-142.907 -15.885)"/>
              </g>
              <g id="group-12" data-name="group" transform="translate(0.703 10.841)">
                <ellipse id="ellipse" class="cls-10" cx="4.259" cy="4.259" rx="4.259" ry="4.259"/>
                <path id="path-47" data-name="path" class="cls-24" d="M146.716,16.711a4.259,4.259,0,1,0,4.259,4.259A4.259,4.259,0,0,0,146.716,16.711Zm0,8.244a3.985,3.985,0,1,1,3.985-3.985A3.984,3.984,0,0,1,146.716,24.954Z" transform="translate(-142.457 -16.711)"/>
              </g>
              <g id="group-13" data-name="group" transform="translate(9.465 17.049)">
                <path id="path-48" data-name="path" class="cls-10" d="M158.81,25.647a.37.37,0,0,1-.37.37h-5.219a.369.369,0,0,1-.369-.37v-1.2a.369.369,0,0,1,.369-.369h5.219a.37.37,0,0,1,.37.369Z" transform="translate(-152.852 -24.077)"/>
                <g id="group-14" data-name="group" transform="translate(0.597 0.882)">
                  <g id="group-15" data-name="group">
                    <rect id="rectangle-8" data-name="rectangle" class="cls-25" width="0.146" height="1.058"/>
                  </g>
                  <g id="group-16" data-name="group" transform="translate(1.154)">
                    <rect id="rectangle-9" data-name="rectangle" class="cls-25" width="0.146" height="1.058"/>
                  </g>
                  <g id="group-17" data-name="group" transform="translate(2.308)">
                    <rect id="rectangle-10" data-name="rectangle" class="cls-25" width="0.147" height="1.058"/>
                  </g>
                  <g id="group-18" data-name="group" transform="translate(3.463)">
                    <rect id="rectangle-11" data-name="rectangle" class="cls-25" width="0.146" height="1.058"/>
                  </g>
                  <g id="group-19" data-name="group" transform="translate(4.617)">
                    <rect id="rectangle-12" data-name="rectangle" class="cls-25" width="0.146" height="1.058"/>
                  </g>
                </g>
              </g>
              <g id="group-20" data-name="group" transform="translate(10.135 11.684)">
                <ellipse id="ellipse-2" data-name="ellipse" class="cls-26" cx="0.847" cy="0.847" rx="0.847" ry="0.847"/>
                <ellipse id="ellipse-3" data-name="ellipse" class="cls-24" cx="0.539" cy="0.539" rx="0.539" ry="0.539" transform="translate(0.308 0.308)"/>
              </g>
              <g id="group-21" data-name="group" transform="translate(13.132 11.684)">
                <ellipse id="ellipse-4" data-name="ellipse" class="cls-26" cx="0.847" cy="0.847" rx="0.847" ry="0.847"/>
                <ellipse id="ellipse-5" data-name="ellipse" class="cls-24" cx="0.539" cy="0.539" rx="0.539" ry="0.539" transform="translate(0.308 0.308)"/>
              </g>
              <g id="group-22" data-name="group" transform="translate(10.135 14.239)">
                <ellipse id="ellipse-6" data-name="ellipse" class="cls-26" cx="0.847" cy="0.847" rx="0.847" ry="0.847"/>
                <ellipse id="ellipse-7" data-name="ellipse" class="cls-24" cx="0.539" cy="0.539" rx="0.539" ry="0.539" transform="translate(0.308 0.308)"/>
              </g>
              <g id="group-23" data-name="group" transform="translate(13.132 14.239)">
                <ellipse id="ellipse-8" data-name="ellipse" class="cls-26" cx="0.847" cy="0.847" rx="0.847" ry="0.847"/>
                <ellipse id="ellipse-9" data-name="ellipse" class="cls-24" cx="0.539" cy="0.539" rx="0.539" ry="0.539" transform="translate(0.308 0.308)"/>
              </g>
            </g>
          </g>
          <g id="group-24" data-name="group" transform="translate(7.663 3.324)">
            <path id="path-49" data-name="path" class="cls-24" d="M14.173,7.353,27.859,21.039l-7.378,3.907L13.831,23.5l-2.466-5.118-.91-3.755,2.3-5.071Z" transform="translate(-9.306 -4.48)"/>
            <path id="path-50" data-name="path" class="cls-27" d="M20.039,3.944A10.947,10.947,0,1,0,30.986,14.891,10.947,10.947,0,0,0,20.039,3.944Zm0,19.022a8.074,8.074,0,1,1,8.074-8.074A8.074,8.074,0,0,1,20.039,22.966Z" transform="translate(-9.092 -3.944)"/>
            <g id="group-25" data-name="group" transform="translate(10.72 5.997)">
              <path id="path-51" data-name="path" class="cls-10" d="M22.038,16.237a.227.227,0,0,1-.228-.227V11.06h.455v4.523L24.48,14.09l.254.378L22.165,16.2A.226.226,0,0,1,22.038,16.237Z" transform="translate(-21.81 -11.06)"/>
            </g>
            <g id="group-26" data-name="group" transform="translate(2.873 2.873)">
              <g id="group-27" data-name="group" transform="translate(7.846)">
                <rect id="rectangle-13" data-name="rectangle" class="cls-28" width="0.455" height="1.15"/>
              </g>
              <g id="group-28" data-name="group" transform="translate(2.204 2.204)">
                <rect id="rectangle-14" data-name="rectangle" class="cls-28" width="1.15" height="0.455" transform="translate(0.322 0) rotate(44.992)"/>
              </g>
              <g id="group-29" data-name="group" transform="translate(0 7.846)">
                <rect id="rectangle-15" data-name="rectangle" class="cls-28" width="1.15" height="0.455"/>
              </g>
              <g id="group-30" data-name="group" transform="translate(2.204 12.809)">
                <rect id="rectangle-16" data-name="rectangle" class="cls-28" width="0.455" height="1.151" transform="translate(0.814) rotate(45)"/>
              </g>
              <g id="group-31" data-name="group" transform="translate(7.847 14.998)">
                <rect id="rectangle-17" data-name="rectangle" class="cls-28" width="0.455" height="1.151"/>
              </g>
              <g id="group-32" data-name="group" transform="translate(12.809 12.808)">
                <rect id="rectangle-18" data-name="rectangle" class="cls-28" width="1.15" height="0.455" transform="translate(0.322 0) rotate(44.992)"/>
              </g>
              <g id="group-33" data-name="group" transform="translate(14.998 7.846)">
                <rect id="rectangle-19" data-name="rectangle" class="cls-28" width="1.151" height="0.455"/>
              </g>
              <g id="group-34" data-name="group" transform="translate(12.809 2.204)">
                <rect id="rectangle-20" data-name="rectangle" class="cls-28" width="0.455" height="1.151" transform="translate(0.814 0) rotate(45)"/>
              </g>
            </g>
          </g>
          <g id="group-35" data-name="group" transform="translate(0 29.097)">
            <g id="group-36" data-name="group" transform="translate(0 17.102)">
              <rect id="rectangle-21" data-name="rectangle" class="cls-8" width="82.681" height="1.676" transform="translate(0.455)"/>
              <path id="path-52" data-name="path" class="cls-8" d="M77.1,99.493l5.2,10.542h2.481L81.471,99.493Z" transform="translate(-12.115 -61.833)"/>
              <path id="path-53" data-name="path" class="cls-12" d="M20.648,99.493l-5.2,10.542h-2.48l3.307-10.542Z" transform="translate(-2.037 -61.833)"/>
              <g id="group-37" data-name="group">
                <path id="path-54" data-name="path" class="cls-12" d="M87,56.487V54.812h2.108V92.927H65.943L35.1,56.487Z" transform="translate(-5.516 -54.812)"/>
                <path id="path-55" data-name="path" class="cls-29" d="M0,54.812H2.109v1.676H29.585L60.428,92.927H0Z" transform="translate(0 -54.812)"/>
              </g>
              <g id="group-38" data-name="group" transform="translate(2.108 19.668)">
                <rect id="rectangle-22" data-name="rectangle" class="cls-8" width="25.701" height="16.329" transform="translate(53.674)"/>
                <rect id="rectangle-23" data-name="rectangle" class="cls-8" width="27.971" height="16.329" transform="translate(25.702)"/>
                <rect id="rectangle-24" data-name="rectangle" class="cls-8" width="25.701" height="16.329"/>
              </g>
              <g id="group-39" data-name="group" transform="translate(27.81 3.338)">
                <path id="path-56" data-name="path" class="cls-12" d="M61.56,58.772V75.1H50.592L36.771,58.772Z" transform="translate(-33.588 -58.772)"/>
                <path id="path-57" data-name="path" class="cls-29" d="M50,75.1h-17V58.772h3.183Z" transform="translate(-32.995 -58.772)"/>
              </g>
              <rect id="rectangle-25" data-name="rectangle" class="cls-29" width="25.701" height="16.33" transform="translate(2.109 3.338)"/>
              <path id="path-58" data-name="path" class="cls-8" d="M72.452,58.772,76.19,61.05h7.655l3.737-2.278Z" transform="translate(-11.385 -55.434)"/>
              <path id="path-59" data-name="path" class="cls-8" d="M40.612,58.772,44.35,61.05H52l3.738-2.278Z" transform="translate(-6.382 -55.434)"/>
              <path id="path-60" data-name="path" class="cls-8" d="M8.772,58.772,12.51,61.05h7.655L23.9,58.772Z" transform="translate(-1.378 -55.434)"/>
              <rect id="rectangle-26" data-name="rectangle" class="cls-29" width="2.168" height="16.368" transform="translate(26.726 19.668)"/>
              <g id="group-40" data-name="group" transform="translate(54.697 19.668)">
                <path id="path-61" data-name="path" class="cls-12" d="M64.894,78.146h2.168V92.385l-2.168-2.562Z" transform="translate(-64.894 -78.146)"/>
                <path id="path-62" data-name="path" class="cls-29" d="M67.062,94.562v2.129H64.894V92Z" transform="translate(-64.894 -80.323)"/>
              </g>
              <g id="group-41" data-name="group" transform="translate(2.108 3.338)">
                <path id="path-63" data-name="path" class="cls-8" d="M66.182,59.03H91.625V75.1H66.18v.3h25.7V58.772h-25.7Z" transform="translate(-12.507 -58.772)"/>
                <path id="path-64" data-name="path" class="cls-8" d="M32.721,59.03h28.2V75.1H32.72v.3H61.182V58.772H32.721Z" transform="translate(-7.249 -58.772)"/>
                <path id="path-65" data-name="path" class="cls-8" d="M2.5,75.4H28.2V58.772H2.5V75.1h0v.3Zm.259-.3V59.03H27.944V75.1Z" transform="translate(-2.5 -58.772)"/>
              </g>
            </g>
            <rect id="rectangle-27" data-name="rectangle" class="cls-30" width="9.495" height="2.159" transform="translate(30.992 16.619)"/>
            <rect id="rectangle-28" data-name="rectangle" class="cls-31" width="8.302" height="2.158" transform="translate(31.589 14.46)"/>
            <rect id="rectangle-29" data-name="rectangle" class="cls-32" width="6.559" height="2.159" transform="translate(32.461 12.302)"/>
            <g id="group-42" data-name="group" transform="translate(41.909)">
              <path id="path-66" data-name="path" class="cls-33" d="M57.465,43.629l-.74-.53-1.561,2.178-.619-1.313,2.473-3.733-.759-.5-.5.755L53.5,36.815l-.775.478,2.483,4.026L54.092,43l-1.109-2.355-.824.388,3.175,6.741.824-.388-.549-1.166Z" transform="translate(-50.105 -34.882)"/>
              <g id="group-43" data-name="group">
                <ellipse id="ellipse-10" data-name="ellipse" class="cls-34" cx="1.328" cy="1.328" rx="1.328" ry="1.328" transform="translate(6.174 6.401)"/>
                <ellipse id="ellipse-11" data-name="ellipse" class="cls-35" cx="1.328" cy="1.328" rx="1.328" ry="1.328" transform="translate(0.711 7.435)"/>
                <ellipse id="ellipse-12" data-name="ellipse" class="cls-34" cx="1.328" cy="1.328" rx="1.328" ry="1.328" transform="translate(4.313)"/>
                <ellipse id="ellipse-13" data-name="ellipse" class="cls-35" cx="1.681" cy="1.681" rx="1.681" ry="1.681" transform="translate(2.846 5.754)"/>
                <ellipse id="ellipse-14" data-name="ellipse" class="cls-36" cx="1.443" cy="1.443" rx="1.443" ry="1.443" transform="translate(2.61 8.599)"/>
                <ellipse id="ellipse-15" data-name="ellipse" class="cls-36" cx="1.681" cy="1.681" rx="1.681" ry="1.681" transform="translate(2.846 3.039)"/>
                <ellipse id="ellipse-16" data-name="ellipse" class="cls-35" cx="1.959" cy="1.959" rx="1.959" ry="1.959" transform="translate(0.961 0.291)"/>
                <ellipse id="ellipse-17" data-name="ellipse" class="cls-34" cx="1.683" cy="1.683" rx="1.683" ry="1.683" transform="translate(0 4.068)"/>
                <ellipse id="ellipse-18" data-name="ellipse" class="cls-35" cx="1.854" cy="1.854" rx="1.854" ry="1.854" transform="translate(5.371 2.214)"/>
              </g>
              <g id="group-44" data-name="group" transform="translate(1.387 12.135)">
                <path id="path-67" data-name="path" class="cls-37" d="M59.337,48.919h-7.97l1.089,4.946,6.517-3.291Z" transform="translate(-51.367 -48.919)"/>
                <path id="path-68" data-name="path" class="cls-38" d="M52.659,54.174l.374,1.7h5.044l1.1-4.987Z" transform="translate(-51.57 -49.228)"/>
              </g>
            </g>
            <g id="group-45" data-name="group" transform="translate(59.676 4.232)">
              <g id="group-46" data-name="group" transform="translate(0 6.05)">
                <path id="path-69" data-name="path" class="cls-39" d="M73.38,54.633a3.1,3.1,0,0,1-.4-.022,1.736,1.736,0,0,1-1.1-.469,1.463,1.463,0,0,1-.325-.938,1.573,1.573,0,0,1-.184-.143,1.714,1.714,0,0,1-.48-1.184,1.821,1.821,0,0,1,.237-1.021,3.6,3.6,0,0,1-.292-.946,2.674,2.674,0,0,1-.022-.778c.108-.942.99-1.41,1.7-1.787l.235-.126c.078-.043.159-.084.241-.127a3.417,3.417,0,0,0,.62-.373l.189.228a3.633,3.633,0,0,1-.674.408c-.08.041-.159.081-.234.122l-.239.128c-.68.362-1.451.772-1.542,1.559a2.406,2.406,0,0,0,.019.688,3.713,3.713,0,0,0,.21.749.716.716,0,0,1,.448-.17.779.779,0,0,1,.554.224.581.581,0,0,1,.194.48.48.48,0,0,1-.273.41.7.7,0,0,1-.67-.125,1.378,1.378,0,0,1-.281-.275,1.64,1.64,0,0,0-.123.717,1.416,1.416,0,0,0,.383.977l.041.035a.8.8,0,0,1,.5-.517.643.643,0,0,1,.532.076.555.555,0,0,1,.257.4.486.486,0,0,1-.136.412.774.774,0,0,1-.612.2,1.068,1.068,0,0,1-.3-.08,1.126,1.126,0,0,0,.241.576,1.472,1.472,0,0,0,.913.371,4.05,4.05,0,0,0,.625.015h.028l.366-.011c.293-.01.6-.02.9-.02v.3c-.294,0-.595.01-.886.02l-.367.012h-.029C73.565,54.631,73.473,54.633,73.38,54.633Zm-1.5-1.587a.927.927,0,0,0,.315.107.489.489,0,0,0,.371-.109.193.193,0,0,0,.053-.169.267.267,0,0,0-.123-.19.348.348,0,0,0-.283-.041A.541.541,0,0,0,71.878,53.046Zm-.389-2.169a1.138,1.138,0,0,0,.283.305.432.432,0,0,0,.377.094c.02-.009.082-.036.1-.173a.315.315,0,0,0-.107-.234.478.478,0,0,0-.34-.139.422.422,0,0,0-.3.138Z" transform="translate(-70.802 -46.721)"/>
              </g>
              <g id="group-47" data-name="group" transform="translate(2.448 6.313)">
                <g id="group-48" data-name="group">
                  <path id="path-70" data-name="path" class="cls-22" d="M75.292,49.519l-1.585,6.054h1.019l5.285-6.054Z" transform="translate(-73.707 -47.424)"/>
                  <g id="group-49" data-name="group" transform="translate(1.019)">
                    <path id="path-71" data-name="path" class="cls-40" d="M83.661,49.519H80.2l-5.285,6.054H85.246Z" transform="translate(-74.916 -47.424)"/>
                    <path id="path-72" data-name="path" class="cls-41" d="M82.243,47.033h-.638l-.42,2.1h3.461Z" transform="translate(-75.901 -47.033)"/>
                  </g>
                  <path id="path-73" data-name="path" class="cls-42" d="M75.624,49.395" transform="translate(-74.008 -47.404)"/>
                  <path id="path-74" data-name="path" class="cls-42" d="M79.676,49.128h.63l.42-2.1H77.99l-2.4,2.1Z" transform="translate(-74.002 -47.033)"/>
                </g>
                <g id="group-50" data-name="group" transform="translate(2.323 0.676)">
                  <g id="group-51" data-name="group">
                    <ellipse id="ellipse-19" data-name="ellipse" class="cls-24" cx="3.381" cy="3.381" rx="3.381" ry="3.381"/>
                    <g id="group-52" data-name="group" transform="translate(0.38 0.253)">
                      <g id="group-53" data-name="group" transform="translate(2.482)">
                        <g id="group-54" data-name="group" transform="translate(0.132 0.132)">
                          <path id="path-75" data-name="path" class="cls-20" d="M80.426,48.32a.378.378,0,0,1,.252.1.379.379,0,1,0-.535.534.376.376,0,0,1-.1-.253A.38.38,0,0,1,80.426,48.32Z" transform="translate(-80.016 -48.291)"/>
                        </g>
                        <path id="path-76" data-name="path" class="cls-22" d="M80.377,48.135a.517.517,0,1,0,.517.517A.517.517,0,0,0,80.377,48.135Zm0,.9a.38.38,0,1,1,.38-.38A.381.381,0,0,1,80.377,49.032Z" transform="translate(-79.86 -48.135)"/>
                      </g>
                      <g id="group-55" data-name="group" transform="translate(1.465 1.593)">
                        <g id="group-56" data-name="group" transform="translate(0.137 0.136)">
                          <path id="path-77" data-name="path" class="cls-20" d="M80.3,50.292a1.374,1.374,0,0,1,.919.356,1.377,1.377,0,1,0-1.943,1.944,1.375,1.375,0,0,1,1.024-2.3Z" transform="translate(-78.815 -50.186)"/>
                        </g>
                        <path id="path-78" data-name="path" class="cls-22" d="M80.188,50.025a1.535,1.535,0,1,0,1.535,1.535A1.535,1.535,0,0,0,80.188,50.025Zm0,2.9a1.367,1.367,0,1,1,1.368-1.367A1.367,1.367,0,0,1,80.188,52.926Z" transform="translate(-78.653 -50.025)"/>
                      </g>
                      <g id="group-57" data-name="group" transform="translate(0.951 0.496)">
                        <g id="group-58" data-name="group" transform="translate(0.131 0.131)">
                          <path id="path-79" data-name="path" class="cls-20" d="M78.607,48.909a.376.376,0,0,1,.252.1.378.378,0,1,0-.534.534.376.376,0,0,1-.1-.253A.379.379,0,0,1,78.607,48.909Z" transform="translate(-78.199 -48.879)"/>
                        </g>
                        <path id="path-80" data-name="path" class="cls-22" d="M78.56,48.724a.517.517,0,1,0,.517.517A.517.517,0,0,0,78.56,48.724Zm0,.9a.38.38,0,1,1,.38-.38A.38.38,0,0,1,78.56,49.621Z" transform="translate(-78.043 -48.724)"/>
                      </g>
                      <g id="group-59" data-name="group" transform="translate(0 1.804)">
                        <g id="group-60" data-name="group" transform="translate(0.132 0.132)">
                          <path id="path-81" data-name="path" class="cls-20" d="M77.479,50.46a.378.378,0,0,1,.253.1.378.378,0,1,0-.534.534.376.376,0,0,1-.1-.253A.38.38,0,0,1,77.479,50.46Z" transform="translate(-77.071 -50.431)"/>
                        </g>
                        <path id="path-82" data-name="path" class="cls-22" d="M77.431,50.275a.517.517,0,1,0,.517.517A.516.516,0,0,0,77.431,50.275Zm0,.9a.38.38,0,1,1,.381-.381A.381.381,0,0,1,77.431,51.172Z" transform="translate(-76.915 -50.275)"/>
                      </g>
                      <g id="group-61" data-name="group" transform="translate(0 3.418)">
                        <g id="group-62" data-name="group" transform="translate(0.132 0.132)">
                          <path id="path-83" data-name="path" class="cls-20" d="M77.479,52.375a.378.378,0,0,1,.253.1.379.379,0,1,0-.534.535.378.378,0,0,1,.282-.633Z" transform="translate(-77.071 -52.346)"/>
                        </g>
                        <path id="path-84" data-name="path" class="cls-22" d="M77.431,52.19a.517.517,0,1,0,.517.517A.516.516,0,0,0,77.431,52.19Zm0,.9a.38.38,0,1,1,.381-.38A.38.38,0,0,1,77.431,53.087Z" transform="translate(-76.915 -52.19)"/>
                      </g>
                      <g id="group-63" data-name="group" transform="translate(0.949 4.723)">
                        <g id="group-64" data-name="group" transform="translate(0.132 0.132)">
                          <path id="path-85" data-name="path" class="cls-20" d="M78.6,53.923a.378.378,0,0,1,.253.1.376.376,0,0,0-.282-.127.378.378,0,0,0-.253.661.375.375,0,0,1-.1-.253A.379.379,0,0,1,78.6,53.923Z" transform="translate(-78.196 -53.895)"/>
                        </g>
                        <path id="path-86" data-name="path" class="cls-22" d="M78.557,53.738a.517.517,0,1,0,.517.517A.517.517,0,0,0,78.557,53.738Zm0,.9a.38.38,0,1,1,.38-.38A.38.38,0,0,1,78.557,54.635Z" transform="translate(-78.04 -53.738)"/>
                      </g>
                      <g id="group-65" data-name="group" transform="translate(2.482 5.221)">
                        <g id="group-66" data-name="group" transform="translate(0.132 0.132)">
                          <path id="path-87" data-name="path" class="cls-20" d="M80.426,54.515a.376.376,0,0,1,.252.1.379.379,0,1,0-.535.534.375.375,0,0,1-.1-.252A.381.381,0,0,1,80.426,54.515Z" transform="translate(-80.016 -54.486)"/>
                        </g>
                        <path id="path-88" data-name="path" class="cls-22" d="M80.377,54.33a.517.517,0,1,0,.517.517A.517.517,0,0,0,80.377,54.33Zm0,.9a.38.38,0,1,1,.38-.38A.381.381,0,0,1,80.377,55.227Z" transform="translate(-79.86 -54.33)"/>
                      </g>
                      <g id="group-67" data-name="group" transform="translate(4.017 4.724)">
                        <g id="group-68" data-name="group" transform="translate(0.132 0.132)">
                          <path id="path-89" data-name="path" class="cls-20" d="M82.247,53.924a.377.377,0,0,1,.252.1.378.378,0,1,0-.534.535.378.378,0,0,1,.282-.633Z" transform="translate(-81.838 -53.895)"/>
                        </g>
                        <path id="path-90" data-name="path" class="cls-22" d="M82.2,53.739a.517.517,0,1,0,.517.517A.517.517,0,0,0,82.2,53.739Zm0,.9a.38.38,0,1,1,.38-.38A.38.38,0,0,1,82.2,54.636Z" transform="translate(-81.681 -53.739)"/>
                      </g>
                      <g id="group-69" data-name="group" transform="translate(4.966 3.418)">
                        <g id="group-70" data-name="group" transform="translate(0.132 0.132)">
                          <path id="path-91" data-name="path" class="cls-20" d="M83.372,52.375a.38.38,0,0,1,.253.1.379.379,0,0,0-.662.253.376.376,0,0,0,.128.282.374.374,0,0,1-.1-.253A.38.38,0,0,1,83.372,52.375Z" transform="translate(-82.963 -52.346)"/>
                        </g>
                        <path id="path-92" data-name="path" class="cls-22" d="M83.323,52.19a.517.517,0,1,0,.517.517A.517.517,0,0,0,83.323,52.19Zm0,.9a.38.38,0,1,1,.381-.38A.38.38,0,0,1,83.323,53.087Z" transform="translate(-82.807 -52.19)"/>
                      </g>
                      <g id="group-71" data-name="group" transform="translate(4.966 1.804)">
                        <g id="group-72" data-name="group" transform="translate(0.132 0.132)">
                          <path id="path-93" data-name="path" class="cls-20" d="M83.372,50.461a.378.378,0,0,1,.253.1.379.379,0,0,0-.662.253.374.374,0,0,0,.128.281.372.372,0,0,1-.1-.252A.38.38,0,0,1,83.372,50.461Z" transform="translate(-82.963 -50.432)"/>
                        </g>
                        <path id="path-94" data-name="path" class="cls-22" d="M83.323,50.275a.517.517,0,1,0,.517.517A.517.517,0,0,0,83.323,50.275Zm0,.9a.38.38,0,1,1,.381-.38A.38.38,0,0,1,83.323,51.173Z" transform="translate(-82.807 -50.275)"/>
                      </g>
                      <g id="group-73" data-name="group" transform="translate(4.017 0.499)">
                        <g id="group-74" data-name="group" transform="translate(0.132 0.132)">
                          <path id="path-95" data-name="path" class="cls-20" d="M82.247,48.912a.377.377,0,0,1,.252.1.376.376,0,0,0-.282-.127.378.378,0,0,0-.252.662.378.378,0,0,1,.282-.632Z" transform="translate(-81.838 -48.882)"/>
                        </g>
                        <path id="path-96" data-name="path" class="cls-22" d="M82.2,48.726a.517.517,0,1,0,.517.517A.517.517,0,0,0,82.2,48.726Zm0,.9a.38.38,0,1,1,.38-.38A.38.38,0,0,1,82.2,49.623Z" transform="translate(-81.681 -48.726)"/>
                      </g>
                    </g>
                    <g id="group-75" data-name="group" transform="translate(1.126 1.127)">
                      <path id="path-97" data-name="path" class="cls-43" d="M82.572,49.172A3.379,3.379,0,0,1,77.8,53.943a3.38,3.38,0,1,0,4.772-4.772Z" transform="translate(-77.8 -49.172)"/>
                    </g>
                  </g>
                  <g id="group-76" data-name="group" transform="translate(0.576 4.796)">
                    <path id="path-98" data-name="path" class="cls-26" d="M78.825,53.658a.7.7,0,0,0-.972.154l-.706.972,1.126.818.706-.971A.7.7,0,0,0,78.825,53.658Zm-.713.982a.516.516,0,1,1,.72-.114A.516.516,0,0,1,78.113,54.64Zm-.966.144,1.126.818" transform="translate(-77.146 -53.525)"/>
                    <path id="path-99" data-name="path" class="cls-44" d="M78.273,55.837l-1.126-.818.043.265,1.125.818Z" transform="translate(-77.147 -53.76)"/>
                    <path id="path-100" data-name="path" class="cls-39" d="M78.523,56.179l.437-.6-.2-.068-.289.4Z" transform="translate(-77.355 -53.837)"/>
                  </g>
                </g>
              </g>
              <g id="group-77" data-name="group" transform="translate(1.826 1.272)">
                <path id="path-101" data-name="path" class="cls-40" d="M82.842,41.056a14.691,14.691,0,0,0-2.114.239l-.908,2.358c2-.543,2.751-.274,2.826-.006v0l.255.92a.537.537,0,0,0,.661.374l1.9-.528a.537.537,0,0,0,.374-.661s-.313-1.127-.51-1.84C85.14,41.225,84.093,41.018,82.842,41.056Z" transform="translate(-74.045 -41.052)"/>
                <g id="group-78" data-name="group" transform="translate(0 0.242)">
                  <path id="path-102" data-name="path" class="cls-22" d="M73.167,45.1l.5,1.8c.04.145.163.375.3.422a.534.534,0,0,0,.228-.011l.178-.049,1.727-.478a.537.537,0,0,0,.374-.662l-.135-.489-.12-.431,0,0c-.074-.266.425-.877,2.381-1.435l.109-.031.064-.017.874-2.271s-.57.094-1.476.345C76.176,42.34,72.8,43.767,73.167,45.1Z" transform="translate(-72.995 -41.356)"/>
                  <path id="path-103" data-name="path" class="cls-42" d="M78.119,41.687c-2.04.565-5.5,2.026-5.121,3.393l.51,1.84a.534.534,0,0,0,.432.386c-.139-.047-.262-.277-.3-.422,0,0-.3-1.1-.5-1.8-.37-1.336,3.009-2.762,5-3.314.906-.251,1.476-.345,1.476-.345l.033-.087C79.1,41.44,78.567,41.562,78.119,41.687Z" transform="translate(-72.969 -41.339)"/>
                </g>
              </g>
              <g id="group-79" data-name="group" transform="translate(1.124 3.373)">
                <path id="path-104" data-name="path" class="cls-39" d="M72.8,43.562a1.96,1.96,0,0,0-.663,1.487c-.007.091.136.091.142,0a1.818,1.818,0,0,1,.622-1.387c.07-.059-.031-.159-.1-.1Z" transform="translate(-72.136 -43.544)"/>
              </g>
              <g id="group-80" data-name="group" transform="translate(0.48 3.2)">
                <path id="path-105" data-name="path" class="cls-39" d="M72.131,43.36a2.721,2.721,0,0,0-.758,1.62c-.011.091.131.089.142,0a2.561,2.561,0,0,1,.717-1.519.071.071,0,0,0-.1-.1Z" transform="translate(-71.372 -43.339)"/>
              </g>
              <g id="group-81" data-name="group" transform="translate(12.79 0.289)">
                <path id="path-106" data-name="path" class="cls-39" d="M86,40.005a3.153,3.153,0,0,1,.984,1.538.071.071,0,0,0,.137-.038,3.286,3.286,0,0,0-1.021-1.6c-.068-.061-.168.039-.1.1Z" transform="translate(-85.976 -39.886)"/>
              </g>
              <g id="group-82" data-name="group" transform="translate(13.345)">
                <path id="path-107" data-name="path" class="cls-39" d="M86.651,39.668a6.178,6.178,0,0,1,.946,1.519c.033.084.17.048.137-.037a6.408,6.408,0,0,0-.982-1.582c-.056-.073-.156.029-.1.1Z" transform="translate(-86.635 -39.543)"/>
              </g>
            </g>
            <g id="group-83" data-name="group" transform="translate(5.296 0.291)">
              <g id="group-84" data-name="group" transform="translate(1.5 7.331)">
                <path id="path-108" data-name="path" class="cls-30" d="M12.881,53.564l-.009-10a5.656,5.656,0,0,1-1.353,0l.009,10-3.465.708v.435l8.281-.005v-.434Z" transform="translate(-8.063 -43.565)"/>
              </g>
              <path id="path-109" data-name="path" class="cls-45" d="M11.915,42.409a20.815,20.815,0,0,1-5.631-.854l3.45-6.261a4.817,4.817,0,0,1,2.175-.427,4.783,4.783,0,0,1,2.175.424l3.463,6.257A20.872,20.872,0,0,1,11.915,42.409Z" transform="translate(-6.284 -34.867)"/>
            </g>
            <rect id="rectangle-30" data-name="rectangle" class="cls-46" width="1.783" height="1.079" transform="translate(17.343 17.698)"/>
            <rect id="rectangle-31" data-name="rectangle" class="cls-21" width="1.48" height="0.643" transform="translate(19.126 18.134)"/>
            <g id="group-85" data-name="group" transform="translate(59.498 45.366)">
              <path id="path-110" data-name="path" class="cls-13" d="M74.577,88.346H70.591v3.08C72.289,91.185,73.446,89.219,74.577,88.346Z" transform="translate(-70.591 -88.346)"/>
              <path id="path-111" data-name="path" class="cls-47" d="M76.19,90.861V88.346H74.577c-1.13.873-2.288,2.839-3.986,3.08V94.5C72.954,94.486,74.2,92.162,76.19,90.861Z" transform="translate(-70.591 -88.346)"/>
              <path id="path-112" data-name="path" class="cls-13" d="M70.591,94.968v.058c0,.849.8,1.536,2.8,1.536s2.8-.688,2.8-1.536v-3.7C74.2,92.631,72.954,94.955,70.591,94.968Z" transform="translate(-70.591 -88.815)"/>
            </g>
            <g id="group-86" data-name="group" transform="translate(66.551 45.366)">
              <path id="path-113" data-name="path" class="cls-13" d="M82.945,88.346H78.959v3.08C80.658,91.185,81.815,89.219,82.945,88.346Z" transform="translate(-78.959 -88.346)"/>
              <path id="path-114" data-name="path" class="cls-47" d="M84.559,90.861V88.346H82.945c-1.13.873-2.288,2.839-3.986,3.08V94.5C81.323,94.486,82.571,92.162,84.559,90.861Z" transform="translate(-78.959 -88.346)"/>
              <path id="path-115" data-name="path" class="cls-13" d="M78.96,94.968v.058c0,.849.8,1.536,2.8,1.536s2.8-.688,2.8-1.536v-3.7C82.572,92.631,81.323,94.955,78.96,94.968Z" transform="translate(-78.959 -88.815)"/>
            </g>
            <g id="group-87" data-name="group" transform="translate(73.605 45.366)">
              <path id="path-116" data-name="path" class="cls-13" d="M91.315,88.346H87.329v3.08C89.026,91.185,90.184,89.219,91.315,88.346Z" transform="translate(-87.328 -88.346)"/>
              <path id="path-117" data-name="path" class="cls-47" d="M92.928,90.861V88.346H91.315c-1.131.873-2.288,2.839-3.986,3.08V94.5C89.691,94.486,90.941,92.162,92.928,90.861Z" transform="translate(-87.328 -88.346)"/>
              <path id="path-118" data-name="path" class="cls-13" d="M87.329,94.968v.058c0,.849.8,1.536,2.8,1.536s2.8-.688,2.8-1.536v-3.7C90.941,92.631,89.691,94.955,87.329,94.968Z" transform="translate(-87.328 -88.815)"/>
            </g>
            <g id="group-88" data-name="group" transform="translate(19.945 41.767)">
              <rect id="rectangle-32" data-name="rectangle" class="cls-30" width="1.644" height="11.371" transform="translate(5.137)"/>
              <rect id="rectangle-33" data-name="rectangle" class="cls-48" width="1.897" height="9.874" transform="translate(3.241 1.497)"/>
              <g id="group-89" data-name="group" transform="translate(0 2.368)">
                <rect id="rectangle-34" data-name="rectangle" class="cls-49" width="1.897" height="8.811" transform="translate(1.874 8.999) rotate(-171.026)"/>
                <rect id="rectangle-35" data-name="rectangle" class="cls-30" width="1.897" height="1.936" transform="translate(2.265 6.522) rotate(-171.037)"/>
              </g>
            </g>
            <g id="group-90" data-name="group" transform="translate(29.792 50.264)">
              <g id="group-91" data-name="group">
                <path id="path-119" data-name="path" class="cls-26" d="M45.382,97.2l1.1-1.393L37.956,97.2Z" transform="translate(-35.757 -94.417)"/>
                <path id="path-120" data-name="path" class="cls-24" d="M35.347,94.157l2.2,2.786,8.526-1.393,1.1-1.393Z" transform="translate(-35.347 -94.157)"/>
              </g>
            </g>
            <g id="group-92" data-name="group" transform="translate(29.792 47.478)">
              <g id="group-93" data-name="group" transform="translate(0 0)">
                <path id="path-121" data-name="path" class="cls-26" d="M45.382,93.9l1.1-1.393L37.956,93.9Z" transform="translate(-35.757 -91.111)"/>
                <path id="path-122" data-name="path" class="cls-24" d="M35.347,90.851l2.2,2.786,8.526-1.393,1.1-1.393Z" transform="translate(-35.347 -90.851)"/>
              </g>
            </g>
            <g id="group-94" data-name="group" transform="translate(29.792 44.692)">
              <g id="group-95" data-name="group">
                <path id="path-123" data-name="path" class="cls-26" d="M45.382,90.592l1.1-1.393-8.526,1.393Z" transform="translate(-35.757 -87.805)"/>
                <path id="path-124" data-name="path" class="cls-24" d="M35.347,87.545l2.2,2.787,8.526-1.393,1.1-1.393Z" transform="translate(-35.347 -87.545)"/>
              </g>
            </g>
            <g id="group-96" data-name="group" transform="translate(42.254 50.264)">
              <g id="group-97" data-name="group">
                <path id="path-125" data-name="path" class="cls-26" d="M60.167,97.2l1.1-1.393L52.741,97.2Z" transform="translate(-50.542 -94.417)"/>
                <path id="path-126" data-name="path" class="cls-24" d="M50.132,94.157l2.2,2.786,8.526-1.393,1.1-1.393Z" transform="translate(-50.132 -94.157)"/>
              </g>
            </g>
            <g id="group-98" data-name="group" transform="translate(42.254 47.478)">
              <g id="group-99" data-name="group" transform="translate(0 0)">
                <path id="path-127" data-name="path" class="cls-26" d="M60.167,93.9l1.1-1.393L52.741,93.9Z" transform="translate(-50.542 -91.111)"/>
                <path id="path-128" data-name="path" class="cls-24" d="M50.132,90.851l2.2,2.786,8.526-1.393,1.1-1.393Z" transform="translate(-50.132 -90.851)"/>
              </g>
            </g>
            <g id="group-100" data-name="group" transform="translate(42.254 44.692)">
              <g id="group-101" data-name="group">
                <path id="path-129" data-name="path" class="cls-26" d="M60.167,90.592l1.1-1.393-8.526,1.393Z" transform="translate(-50.542 -87.805)"/>
                <path id="path-130" data-name="path" class="cls-24" d="M50.132,87.545l2.2,2.787,8.526-1.393,1.1-1.393Z" transform="translate(-50.132 -87.545)"/>
              </g>
            </g>
            <g id="group-102" data-name="group" transform="translate(29.792 41.905)">
              <g id="group-103" data-name="group">
                <path id="path-131" data-name="path" class="cls-26" d="M45.382,87.286l1.1-1.393-8.526,1.393Z" transform="translate(-35.757 -84.499)"/>
                <path id="path-132" data-name="path" class="cls-24" d="M35.347,84.239l2.2,2.787,8.526-1.393,1.1-1.394Z" transform="translate(-35.347 -84.239)"/>
              </g>
            </g>
            <rect id="rectangle-36" data-name="rectangle" class="cls-26" width="11.063" height="1.148" transform="translate(3.896 51.951)"/>
            <rect id="rectangle-37" data-name="rectangle" class="cls-24" width="11.063" height="1.147" transform="translate(3.896 50.803)"/>
            <rect id="rectangle-38" data-name="rectangle" class="cls-26" width="11.063" height="1.148" transform="translate(4.351 49.656)"/>
            <rect id="rectangle-39" data-name="rectangle" class="cls-24" width="11.063" height="1.148" transform="translate(3.896 48.508)"/>
            <rect id="rectangle-40" data-name="rectangle" class="cls-26" width="10.034" height="1.148" transform="translate(4.351 47.36)"/>
          </g>
          <line id="line" class="cls-48" x1="1.873" y1="0.296" transform="translate(19.946 81.938)"/>
        </g>
      </g>
    </g>
  </g>
</svg>
